<svg version="1.1" xmlns="http://www.w3.org/2000/svg" xmlns:xlink="http://www.w3.org/1999/xlink" width="28.90261" height="28.90261"><g transform="translate(-225.57469,-165.45456)"><g data-paper-data="{&quot;isPaintingLayer&quot;:true}" fill="none" fill-rule="nonzero" stroke="none" stroke-width="0" stroke-linecap="butt" stroke-linejoin="miter" stroke-miterlimit="10" stroke-dasharray="" stroke-dashoffset="0" font-family="none" font-weight="none" font-size="none" text-anchor="none" style="mix-blend-mode: normal"><path d="M229.91505,189.96385v-20.3319h20.3215v20.3319z" data-paper-data="{&quot;origPos&quot;:null}" fill="#bb600b" stroke="none"/><path d="M229.81587,190.36057v-20.72862h20.3319v20.72862z" data-paper-data="{&quot;origPos&quot;:null}" fill="#a1530a" stroke="none"/><path d="M237.32968,193.52198v-27.13943l0.56778,-0.92798l0.67423,0.92798v27.13943l-0.67423,0.83518z" data-paper-data="{&quot;origPos&quot;:null}" fill="#814208" stroke="#000000"/><path d="M241.4803,193.52198v-27.13943l0.56778,-0.92798l0.67423,0.92798v27.13944l-0.67423,0.83518z" data-paper-data="{&quot;origPos&quot;:null}" fill="#814208" stroke="#000000"/><path d="M229.02843,193.52197v-27.13943l0.56778,-0.92798l0.67423,0.92798v27.13943l-0.67423,0.83518z" data-paper-data="{&quot;origPos&quot;:null}" fill="#814208" stroke="#000000"/><path d="M233.17905,193.52197v-27.13943l0.56778,-0.92798l0.67423,0.92798v27.13944l-0.67423,0.83518z" data-paper-data="{&quot;origPos&quot;:null}" fill="#814208" stroke="#000000"/><path d="M245.63092,193.52197v-27.13943l0.56778,-0.92798l0.67423,0.92798v27.13943l-0.67423,0.83518z" data-paper-data="{&quot;origPos&quot;:null}" fill="#814208" stroke="#000000"/><path d="M249.78154,193.52197v-27.13943l0.56778,-0.92798l0.67423,0.92798v27.13944l-0.67423,0.83518z" data-paper-data="{&quot;origPos&quot;:null}" fill="#814208" stroke="#000000"/><path d="M226.40988,177.20955h27.13943l0.92798,0.56778l-0.92798,0.67423h-27.13943l-0.83518,-0.67423z" data-paper-data="{&quot;origPos&quot;:null,&quot;origRot&quot;:0}" fill="#814208" stroke="#000000"/><path d="M226.40988,181.36017h27.13943l0.92798,0.56778l-0.92798,0.67423h-27.13944l-0.83518,-0.67423z" data-paper-data="{&quot;origPos&quot;:null,&quot;origRot&quot;:0}" fill="#814208" stroke="#000000"/><path d="M226.40989,168.9083h27.13943l0.92798,0.56778l-0.92798,0.67423h-27.13943l-0.83518,-0.67423z" data-paper-data="{&quot;origPos&quot;:null,&quot;origRot&quot;:0}" fill="#814208" stroke="#000000"/><path d="M226.40989,173.05892h27.13943l0.92798,0.56778l-0.92798,0.67423h-27.13944l-0.83518,-0.67423z" data-paper-data="{&quot;origPos&quot;:null,&quot;origRot&quot;:0}" fill="#814208" stroke="#000000"/><path d="M226.40989,185.51079h27.13943l0.92798,0.56778l-0.92798,0.67423h-27.13943l-0.83518,-0.67423z" data-paper-data="{&quot;origPos&quot;:null,&quot;origRot&quot;:0}" fill="#814208" stroke="#000000"/><path d="M226.40989,189.66141h27.13943l0.92798,0.56778l-0.92798,0.67423h-27.13944l-0.83518,-0.67423z" data-paper-data="{&quot;origPos&quot;:null,&quot;origRot&quot;:0}" fill="#814208" stroke="#000000"/></g></g></svg>